<?xml version="1.0" encoding="UTF-8"?>
<svg version="1.1" viewBox="0 0 1200 1200" xmlns="http://www.w3.org/2000/svg">
 <path d="m242.63 189.47c12.234-11.391 24.938-20.531 35.156-30.141 10.078-9.7031 18.375-20.156 17.625-35.531-0.375-6.1406-2.8594-11.297-7.9219-15.609-5.0625-4.4531-12.375-7.6875-21.844-9.2344-18.703-3.375-45.938 0.60938-72.703 15.375-26.625 14.625-52.219 39.938-67.688 71.062-16.219 30.938-21.703 66.469-19.922 97.219 1.0781 17.531 4.5469 35.062 10.453 51.609l14.625 38.062 28.547 73.219 56.297 143.53c1.3125 3.7031 1.4531 7.9219 0.46875 11.766 0 0.46875-0.23438 0.9375-0.375 1.4531l-0.9375 2.7656-3.4688 9.1406-6.9375 18.375-27.938 73.453-55.922 147c-12.469 32.531-14.859 68.297-8.3906 102.23 6.8438 33.938 22.922 66 46.547 91.078 23.156 25.453 53.859 43.781 87 53.062 16.547 4.9219 33.938 6.4688 50.766 6.8438l11.391-0.23438c4.3125-0.14062 8.5312-0.46875 12.844-0.9375 8.5312-0.9375 17.062-2.5312 25.312-4.5469 105.38-28.453 204.71-67.078 301.92-112.78 101.06-48.375 198.71-104.86 288.71-172.69 22.312-17.156 45-33.938 66.234-52.688 11.062-9.4688 21-17.531 32.859-28.078 13.078-12.141 24.234-26.156 33.375-41.297 36.844-60.938 35.297-141.61-3.9375-201.14-9.4688-14.531-21.938-28.922-34.453-39.469l-32.297-27.375c-21.234-18.703-44.156-35.062-66.375-52.453-45.469-33.234-92.156-64.688-140.76-92.859-96.703-57.141-198.61-104.77-303.84-143.06-34.688-12.609-77.297-29.859-114.23-37.547-9.1406-1.9219-18.141-3.2344-26.297-3.9375-9.4688-0.9375-18.938-0.60937-26.391 1.2188-7.5469 1.6875-13.547 4.6875-17.625 8.5312s-5.7656 8.5312-6.4688 14.062c-1.4531 12 5.3906 19.781 14.531 25.922 4.6875 3.1406 10.078 5.8594 15.938 8.7656 5.625 2.8594 14.062 6.2344 22.078 9.2344 33.141 11.859 76.312 22.688 108 34.312 98.859 36.844 195.14 81.234 286.22 134.39l34.078 20.062 33.234 21.234c22.453 13.781 43.547 29.531 65.156 44.391 21.375 15.375 41.859 31.688 62.766 47.766l30.141 25.453 15 12.703c5.2969 4.3125 8.3906 7.5469 12.375 11.766 29.625 32.391 38.859 82.078 23.156 123.37-3.8438 10.312-9.1406 20.062-15.469 28.922-3.375 4.3125-6.7031 8.625-10.547 12.469-1.7812 2.0625-3.9375 3.8438-5.8594 5.7656l-7.4531 6.375c-20.297 16.688-39.469 34.688-60.703 50.156-82.922 64.547-172.78 120.71-267.37 167.39-94.312 47.297-193.31 85.781-294.37 114.47l-18.938 5.0625-9.375 2.3906c-2.625 0.60938-5.2969 1.2188-7.9219 1.5469-5.2969 0.84375-10.688 1.3125-16.078 1.5469h-9l-8.0625-0.60938c-21.375-1.7812-42.234-9.7031-59.062-22.922-34.547-25.922-51-71.859-41.531-113.06 1.2188-5.1562 2.625-10.078 4.5469-15l7.2188-17.859 15.141-37.219 30.469-74.297 30.609-74.156 15.375-37.078 3.9375-9.6094c1.4531-3.6094 2.5312-7.4531 3.4688-11.156 108.23 3.4688 216.61-9.4688 324.61 21 13.547 3.8438 33.375 8.3906 32.859-51.609-0.375-49.219-18.938-43.688-31.547-43.922-57.141-0.9375-114.23 5.8594-171.37 5.8594-52.922 0-105.94 0-158.86 0.14062l-5.1562-14.391-13.547-37.781-26.859-75.609-26.625-75.703-13.219-37.922c-2.5312-7.2188-3.375-10.078-4.4531-14.859-0.9375-4.4531-1.6875-8.8594-1.9219-13.312-1.2188-16.781 2.1562-35.391 9.9375-51.469 7.4531-16.453 19.312-30.469 31.453-42z"/>
</svg>
