<?xml version="1.0" encoding="UTF-8"?>
<svg version="1.1" viewBox="0 0 1200 1200" xmlns="http://www.w3.org/2000/svg">
 <path d="m92.391 353.39c-3 14.297-4.5469 25.547-6.375 38.062-1.6875 12.234-3.2344 24.469-4.6875 36.703-11.156 98.062-12.234 197.29-3.375 295.45 2.2969 24.469 5.0625 49.078 8.5312 73.453l5.625 36.469c2.3906 12.234 4.7812 26.766 8.7656 39.609 14.625 53.062 43.312 101.86 81.375 141.24 40.078 40.922 90.703 72 146.06 87.375 13.453 4.3125 28.453 6.7031 41.391 9.2344 12.703 2.0625 25.453 4.0781 38.156 5.625 25.547 3.6094 51.141 6.1406 76.781 8.2969 102.61 8.1562 206.16 5.625 308.29-8.2969 12.703-1.5469 25.453-3.7031 38.156-5.625 12.938-2.3906 27.938-4.9219 41.391-9.2344 27.609-7.7812 54.375-19.078 78.844-34.078 49.078-29.625 90.844-71.766 118.55-122.16 13.922-25.078 24.844-51.844 31.922-79.688 6.8438-29.297 9.8438-53.062 13.312-78.938 6.6094-51.141 10.312-102.47 11.391-153.94 0.70312-33.844 3-76.312-1.6875-110.3-4.5469-33.938-15.375-59.156-37.547-59.062-24 0.23438-29.859 25.078-30.609 57.375-0.60938 32.297 3.6094 72.469 2.625 103.22-1.2188 48-4.7812 95.859-10.781 143.39-3.1406 23.391-6.4688 48.375-11.062 70.219-4.6875 21.703-11.625 42.938-21.844 62.625-19.922 39.609-49.781 74.297-86.625 99.141-18.234 12.469-38.062 22.922-59.062 30.234-21.234 7.5469-41.625 11.859-66.234 15.234-94.781 14.391-191.06 18.609-286.78 13.078-47.766-3-95.766-8.2969-142.69-16.219-43.688-7.9219-85.688-26.297-119.86-54.844-17.156-14.062-32.625-30.234-45.844-48.141-12.938-18-23.625-37.688-31.781-58.219-4.2188-10.312-7.3125-20.859-10.219-31.547-2.3906-10.922-4.6875-21.234-6.375-33.469-3.6094-23.625-6.4688-47.391-8.8594-71.297-9.2344-95.391-8.0625-191.63 3.7031-286.45 2.8594-23.766 6.4688-47.297 10.688-70.781 4.3125-22.688 9.6094-42.844 18.609-62.766 17.766-39.375 45.141-74.297 79.547-99.375 34.219-25.688 74.625-41.156 116.53-46.547 46.922-6 94.219-9.4688 141.47-10.219 44.156-0.84375 97.547 0.9375 140.29-2.625 42.703-3.8438 75.469-13.922 77.297-44.062 1.4531-24.609-30-39-73.219-45.938-43.219-7.0781-97.688-5.5312-141-3.1406-49.453 2.5312-98.625 7.6875-147.47 15.375-11.625 1.6875-25.688 4.6875-39.375 7.5469-13.453 3.8438-26.859 7.4531-39.844 12.844-25.922 10.219-51 23.156-73.453 39.703-45.375 32.531-82.453 76.312-106.45 126.61-12.375 24.938-21 51.703-26.391 78.844z"/>
 <path d="m531.14 477.84c14.297-5.7656 31.312-9.4688 44.625-17.625 3.375-1.9219 6.6094-4.4531 9.4688-7.5469 3-2.7656 5.625-6 7.9219-10.219 4.5469-8.1562 7.7812-19.312 7.5469-34.312-0.23438-12.234-4.2188-21-11.391-27.141-7.2188-6.375-17.391-9.2344-29.062-9.6094-23.391-0.9375-51.141 9.6094-71.391 20.625-46.312 24.703-84.469 64.781-105.23 113.3-21.234 48.234-25.453 103.08-12.141 153.47 12.609 50.766 43.547 95.625 84 127.22 40.547 31.781 91.922 49.078 143.06 49.688 53.531 0.375 107.39-18 148.92-52.078 41.531-33.844 71.062-82.219 81.703-134.86 10.312-52.688 2.2969-108.7-23.297-156.14-25.688-47.156-67.688-84.844-117.38-105.14-16.312-6.375-36.938-15.703-55.219-15.141-18.141 0-31.781 8.5312-32.391 30.234-0.70312 24 9 32.531 20.859 36.609 11.859 4.2188 27.609 4.7812 38.766 9.6094 34.219 14.297 63.844 39.703 81.844 72 18.375 31.922 25.781 69.938 20.062 106.55-9.2344 73.547-75.844 135.71-150.37 138.94-37.078 3-74.297-8.625-104.06-29.859-29.859-21.375-51.234-53.766-60.141-88.453-8.7656-34.781-4.4531-72.375 11.062-103.22 15.703-30.703 42.141-55.219 72.375-67.219z"/>
 <path d="m945.14 182.86c-8.5312 83.625 127.31 72.844 103.55-3.8438-10.312-59.859-99.469-57.609-103.55 3.8438z"/>
</svg>
