<svg xmlns="http://www.w3.org/2000/svg" viewBox="0 0 100 100">
  <!-- Chillax W glyph, white on transparent -->
  <g transform="translate(8.08, 0)">
    <path fill="#ffffff" d="M10.92 72.76L0.84 25.30L16.38 25.30L24.44 67.97Q24.36 67.55 24.19 67.30Q24.02 67.05 23.69 67.05Q23.35 67.05 23.18 67.30Q23.02 67.55 22.85 67.97L30.07 35.88Q31.50 29.67 34.44 26.85Q37.38 24.04 41.92 24.04Q46.45 24.04 49.43 26.85Q52.42 29.67 53.76 35.88L60.98 67.97Q60.90 67.55 60.69 67.34Q60.48 67.13 60.14 67.13Q59.81 67.13 59.64 67.34Q59.47 67.55 59.39 67.97L67.45 25.30L82.99 25.30L72.91 72.76Q71.82 77.88 68.63 80.61Q65.44 83.34 60.82 83.34Q56.70 83.34 53.34 80.70Q49.98 78.05 48.89 73.43L41.08 39.08Q41.24 39.41 41.41 39.62Q41.58 39.83 41.92 39.83Q42.25 39.83 42.46 39.66Q42.67 39.50 42.76 39.08L34.94 73.43Q33.85 78.05 30.53 80.70Q27.22 83.34 23.02 83.34Q18.40 83.34 15.20 80.61Q12.01 77.88 10.92 72.76"/>
  </g>
</svg>
