<svg xmlns="http://www.w3.org/2000/svg" viewBox="0 0 64 64">
  <rect width="64" height="64" rx="10" fill="#1a1a18"/>
  <g transform="translate(4.466 49.139) scale(0.058896 -0.058896)">
    <path fill="#f5f4f0" d="M254 -13C318 -13 375 15 417 87C419 87 420 87 422 87H426C458 17 511 -13 587 -13C763 -13 875 113 875 395C875 457 873 524 862 595H713C722 533 727 457 727 385C727 242 692 109 606 109C571 109 542 125 542 194V595H393V331C393 204 351 109 273 109C238 109 209 125 209 194V595H60V185C60 59 131 -13 254 -13Z"/>
  </g>
</svg>
