<svg xmlns="http://www.w3.org/2000/svg" viewBox="0 0 64 64">
  <rect width="64" height="64" rx="14" fill="#fff"/>
  <path fill="#000" transform="translate(32 36) scale(1.22) translate(-32 -36)" d="M35.2 54.1C37 54.1 38.55 54 40 54V44.2C36.55 44.2 32.7 45.6 29.75 45.6C26.55 45.6 24.25 43.9 24.25 35.4V34.6C24.25 32.45 25.1 30.65 27.65 30.65C28.85 30.65 30.6 31.05 32.75 31.55C35.95 32.3 37.95 32.65 40.55 32.65V24.1C35.3 24.1 28.65 27.7 26.25 27.7C25.65 27.7 25.35 27.5 25.35 27C25.35 24.75 32.4 21.8 32.4 18.1H23.45V40.5C23.45 52.35 27.75 54.1 35.2 54.1Z"/>
</svg>
